<svg width="83" height="22" viewBox="0 0 83 22" fill="none" xmlns="http://www.w3.org/2000/svg">
<path fill-rule="evenodd" clip-rule="evenodd" d="M13.759 3.6099H9.63765L3.56796 10.6918V3.6099H0.479004V18.4591H3.56796V14.5755L6.0408 11.9047L10.0956 18.4591H14.1004L8.14729 9.66589L13.759 3.6099ZM24.8622 15.6057V10.3513C24.8622 7.83837 23.0304 6.69612 19.4835 6.69612C16.3946 6.69612 14.3339 8.06682 14.3339 10.4635H17.3104C17.3104 9.66597 17.6518 8.75217 19.6001 8.75217C21.3153 8.75217 21.8898 9.43752 21.8898 10.235C21.8898 10.8041 21.6608 11.3773 19.3711 11.3773C15.5953 11.3773 14.1049 12.8643 14.1049 15.1446C14.1049 17.0844 15.2497 18.7998 17.9973 18.7998C20.7449 18.7998 21.8898 16.7438 21.8898 16.7438V16.8601C21.8898 18.2308 22.2311 18.4592 22.2311 18.4592H25.4367V18.3471C25.4367 18.3471 24.8622 17.8902 24.8622 15.6057ZM21.8856 13.5496C21.8856 15.7178 20.2828 16.6316 18.909 16.6316C17.6518 16.6316 16.9649 16.0626 16.9649 14.9162C16.9649 14.0024 17.6518 13.317 19.138 13.317C21.0746 13.317 21.8036 12.6187 21.8796 12.5459C21.8825 12.5431 21.8856 12.5403 21.8856 12.5403V13.5496ZM29.3242 8.98062C29.3242 8.98062 30.469 6.69612 33.2166 6.69612C35.9642 6.69612 38.3663 8.64833 38.3663 12.7563C38.3663 16.8642 35.9642 18.8081 33.2166 18.8081C30.469 18.8081 29.3242 16.7521 29.3242 16.7521V21.8901H26.3476V7.04087H29.3242V8.98062ZM29.3242 12.7521C29.3242 15.6057 30.8145 16.7479 32.3007 16.7479C33.7911 16.7479 35.2773 15.6057 35.2773 12.7521C35.2773 9.89857 33.7911 8.75632 32.3007 8.75632C30.8104 8.75632 29.3242 9.89857 29.3242 12.7521ZM45.007 11.3773C42.7173 11.3773 42.376 10.6919 42.376 10.1229C42.376 9.55382 42.9505 8.75217 44.5491 8.75217C46.2642 8.75217 46.8387 9.54966 46.8387 10.4635H49.8153C49.8153 9.20907 49.245 6.69612 44.6656 6.69612C41.1187 6.69612 39.3994 8.29527 39.3994 10.235C39.3994 12.2911 40.7732 13.4333 44.3201 13.4333C46.7222 13.4333 47.1801 14.1187 47.1801 14.9162C47.1801 15.7137 46.7222 16.7438 44.778 16.7438C43.2918 16.7438 42.2594 16.0584 42.2594 14.6877H39.1705C39.1705 16.7438 40.5442 18.7998 44.778 18.7998C48.5539 18.7998 50.2732 16.9722 50.2732 14.804C50.2732 12.1748 48.3291 11.3773 45.007 11.3773ZM52.908 3.6099H55.8845V7.03665H58.4031V9.32115H55.8845V15.1445C55.8845 16.1705 56.23 16.3989 57.0293 16.3989C57.4873 16.3989 58.4031 16.2826 58.4031 16.2826V18.455C58.4031 18.455 56.9128 18.6834 55.8845 18.6834C53.4783 18.6834 52.908 17.8859 52.908 15.1445V9.32115H50.6183V7.03665H52.908V3.6099ZM70.0765 15.6057V10.3513C70.0765 7.83837 68.2448 6.69612 64.6979 6.69612C61.6089 6.69612 59.5482 8.06682 59.5482 10.4635H62.5248C62.5248 9.66597 62.8662 8.75217 64.8145 8.75217C66.5296 8.75217 67.1041 9.43752 67.1041 10.235C67.1041 10.8041 66.8752 11.3773 64.5855 11.3773C60.8096 11.3773 59.3193 12.8643 59.3193 15.1446C59.3193 17.0844 60.4641 18.7998 63.2117 18.7998C65.9593 18.7998 67.1041 16.7438 67.1041 16.7438V16.8601C67.1041 18.2308 67.4455 18.4592 67.4455 18.4592H70.651V18.3471C70.651 18.3471 70.0807 17.8902 70.0807 15.6057H70.0765ZM67.1 13.5496C67.1 15.7178 65.4972 16.6316 64.1234 16.6316C62.8662 16.6316 62.1793 16.0626 62.1793 14.9162C62.1793 14.0024 62.8662 13.317 64.3524 13.317C66.2889 13.317 67.018 12.6187 67.0939 12.5459C67.0969 12.5431 67.1 12.5403 67.1 12.5403V13.5496ZM74.5437 9.2091C74.5437 9.2091 76.1465 6.69615 78.6651 6.69615C81.4127 6.69615 82.5534 8.4033 82.5534 10.9162V18.4551H79.5768V11.7179C79.5768 9.77815 78.7775 9.0928 77.4037 9.0928C76.0299 9.0928 74.5437 10.1229 74.5437 12.748V18.4592H71.5671V7.03675H74.5437V9.2091Z" fill="white"/>
</svg>
