<svg width="18" height="18" viewBox="0 0 18 18" fill="none" xmlns="http://www.w3.org/2000/svg">
<path fill-rule="evenodd" clip-rule="evenodd" d="M4.61031 2.43027C5.90966 1.56207 7.43728 1.09867 9 1.09867C10.0376 1.09867 11.065 1.30304 12.0237 1.70011C12.9823 2.09719 13.8533 2.67919 14.587 3.41288C15.3207 4.14658 15.9027 5.01761 16.2998 5.97623C16.6969 6.93485 16.9012 7.9623 16.9012 8.9999C16.9012 10.5626 16.4378 12.0902 15.5696 13.3896C14.7014 14.6889 13.4674 15.7017 12.0237 16.2997C10.5799 16.8977 8.99123 17.0542 7.45854 16.7493C5.92585 16.4444 4.51799 15.6919 3.41298 14.5869C2.30797 13.4819 1.55545 12.074 1.25058 10.5414C0.945712 9.00867 1.10218 7.41999 1.70021 5.97623C2.29823 4.53247 3.31096 3.29846 4.61031 2.43027ZM5.11592 14.8128C6.26561 15.581 7.61728 15.991 9 15.991C10.8542 15.991 12.6324 15.2545 13.9435 13.9434C15.2546 12.6323 15.9911 10.8541 15.9911 8.9999C15.9911 7.61718 15.5811 6.26552 14.8129 5.11583C14.0447 3.96614 12.9529 3.07007 11.6754 2.54093C10.3979 2.01178 8.99224 1.87334 7.63609 2.14309C6.27994 2.41285 5.03424 3.07869 4.05651 4.05642C3.07878 5.03414 2.41294 6.27985 2.14319 7.636C1.87343 8.99214 2.01188 10.3978 2.54102 11.6753C3.07016 12.9528 3.96624 14.0446 5.11592 14.8128Z" fill="#00B88C"/>
<path fill-rule="evenodd" clip-rule="evenodd" d="M4.55544 2.34815C5.87103 1.46909 7.41775 0.999902 9 0.999902C10.0506 0.999902 11.0909 1.20683 12.0615 1.60887C13.0321 2.0109 13.914 2.60018 14.6568 3.34305C15.3997 4.08592 15.989 4.96783 16.391 5.93843C16.7931 6.90904 17 7.94933 17 8.9999C17 10.5821 16.5308 12.1289 15.6518 13.4445C14.7727 14.7601 13.5233 15.7854 12.0615 16.3909C10.5997 16.9964 8.99112 17.1549 7.43927 16.8462C5.88743 16.5375 4.46196 15.7756 3.34314 14.6568C2.22432 13.5379 1.4624 12.1125 1.15372 10.5606C0.845034 9.00878 1.00346 7.40024 1.60896 5.93843C2.21446 4.47662 3.23984 3.2272 4.55544 2.34815ZM5.1708 14.7307C6.30424 15.488 7.63681 15.8923 9 15.8923C10.828 15.8923 12.5811 15.1661 13.8736 13.8735C15.1662 12.581 15.8924 10.8279 15.8924 8.9999C15.8924 7.63672 15.4881 6.30415 14.7308 5.1707C13.9735 4.03725 12.897 3.15384 11.6376 2.63217C10.3782 2.11051 8.99235 1.97401 7.65536 2.23996C6.31837 2.5059 5.09026 3.16234 4.12635 4.12625C3.16243 5.09017 2.506 6.31827 2.24005 7.65526C1.97411 8.99225 2.1106 10.3781 2.63227 11.6375C3.15394 12.8969 4.03735 13.9734 5.1708 14.7307ZM9 1.09867C7.43728 1.09867 5.90966 1.56207 4.61031 2.43027C3.31096 3.29846 2.29823 4.53247 1.70021 5.97623C1.10218 7.41999 0.945712 9.00867 1.25058 10.5414C1.55545 12.074 2.30797 13.4819 3.41298 14.5869C4.51799 15.6919 5.92585 16.4444 7.45854 16.7493C8.99123 17.0542 10.5799 16.8977 12.0237 16.2997C13.4674 15.7017 14.7014 14.6889 15.5696 13.3896C16.4378 12.0902 16.9012 10.5626 16.9012 8.9999C16.9012 7.9623 16.6969 6.93485 16.2998 5.97623C15.9027 5.01761 15.3207 4.14658 14.587 3.41288C13.8533 2.67919 12.9823 2.09719 12.0237 1.70011C11.065 1.30304 10.0376 1.09867 9 1.09867ZM9 15.991C7.61728 15.991 6.26561 15.581 5.11592 14.8128C3.96624 14.0446 3.07016 12.9528 2.54102 11.6753C2.01188 10.3978 1.87343 8.99214 2.14319 7.636C2.41294 6.27985 3.07878 5.03414 4.05651 4.05642C5.03424 3.07869 6.27994 2.41285 7.63609 2.14309C8.99224 1.87334 10.3979 2.01178 11.6754 2.54093C12.9529 3.07007 14.0447 3.96614 14.8129 5.11583C15.5811 6.26552 15.9911 7.61718 15.9911 8.9999C15.9911 10.8541 15.2546 12.6323 13.9435 13.9434C12.6324 15.2545 10.8542 15.991 9 15.991Z" fill="#00B88C"/>
<path fill-rule="evenodd" clip-rule="evenodd" d="M12.8424 6.16482C12.9619 6.28985 12.9619 6.49256 12.8424 6.61759L7.85656 11.835C7.79918 11.895 7.72136 11.9288 7.64022 11.9288C7.55908 11.9288 7.48126 11.895 7.42388 11.835L5.15759 9.46344C5.03811 9.33841 5.03811 9.1357 5.15759 9.01067C5.27707 8.88564 5.47079 8.88564 5.59027 9.01067L7.64022 11.1558L12.4097 6.16482C12.5292 6.03979 12.7229 6.03979 12.8424 6.16482Z" fill="#00B88C"/>
<path fill-rule="evenodd" clip-rule="evenodd" d="M12.3616 6.11451C12.5077 5.9617 12.7444 5.9617 12.8905 6.11451L12.8424 6.16482C12.7229 6.03979 12.5292 6.03979 12.4097 6.16482L7.64022 11.1558L5.59027 9.01067C5.47079 8.88564 5.27707 8.88564 5.15759 9.01067C5.03811 9.1357 5.03811 9.33841 5.15759 9.46344L7.42388 11.835C7.48126 11.895 7.55908 11.9288 7.64022 11.9288C7.72136 11.9288 7.79918 11.895 7.85656 11.835L12.8424 6.61759C12.9619 6.49256 12.9619 6.28985 12.8424 6.16482L12.8905 6.11451C13.0365 6.26733 13.0365 6.51509 12.8905 6.6679L7.90463 11.8853C7.83451 11.9587 7.7394 11.9999 7.64022 11.9999C7.54105 11.9999 7.44593 11.9587 7.37581 11.8853L5.10952 9.51375C4.96349 9.36094 4.96349 9.11318 5.10952 8.96036C5.25555 8.80755 5.49231 8.80755 5.63835 8.96036L7.64022 11.0552L12.3616 6.11451Z" fill="#00B88C"/>
<path fill-rule="evenodd" clip-rule="evenodd" d="M12.3985 6.08067C12.3946 6.08376 12.3908 6.08695 12.3871 6.09022C12.3783 6.09783 12.3698 6.10593 12.3616 6.11451L7.64022 11.0552L5.63835 8.96036C5.49231 8.80755 5.25555 8.80755 5.10952 8.96036C4.96349 9.11318 4.96349 9.36094 5.10952 9.51375L7.37581 11.8853C7.44593 11.9587 7.54105 11.9999 7.64022 11.9999C7.7394 11.9999 7.83451 11.9587 7.90463 11.8853L12.8905 6.6679L12.9628 6.73699L7.97693 11.9544C7.88844 12.047 7.76742 12.0999 7.64022 12.0999C7.51302 12.0999 7.392 12.047 7.30351 11.9544L5.03722 9.58284C4.85425 9.39137 4.85425 9.08274 5.03722 8.89127C5.22264 8.69724 5.52522 8.69724 5.71064 8.89127L7.64022 10.9105L12.2893 6.04542C12.4748 5.8514 12.7773 5.85139 12.9628 6.04542C13.1457 6.23689 13.1457 6.54552 12.9628 6.73699L12.8905 6.6679C13.0248 6.52735 13.0356 6.30648 12.9228 6.15304C12.913 6.13965 12.9022 6.12678 12.8905 6.11451C12.8823 6.10594 12.8738 6.09784 12.8651 6.09022C12.8613 6.08695 12.8575 6.08377 12.8537 6.08067C12.7198 5.97298 12.5323 5.97298 12.3985 6.08067Z" fill="#00B88C"/>
<path fill-rule="evenodd" clip-rule="evenodd" d="M12.2893 6.04542L7.64022 10.9105L5.71064 8.89127C5.52522 8.69724 5.22264 8.69724 5.03722 8.89127C4.85425 9.08274 4.85425 9.39137 5.03722 9.58284L7.30351 11.9544C7.392 12.047 7.51302 12.0999 7.64022 12.0999C7.76742 12.0999 7.88844 12.047 7.97693 11.9544L12.9628 6.73699C12.9628 6.737 12.9628 6.73698 12.9628 6.73699C12.9744 6.72482 12.9853 6.71213 12.9955 6.69908C13.0583 6.61828 13.0927 6.52178 13.099 6.42375C13.1076 6.28811 13.0622 6.14947 12.9628 6.04542C12.8944 5.97393 12.8102 5.92878 12.7218 5.90997C12.721 5.90981 12.7203 5.90965 12.7195 5.90949C12.6635 5.89787 12.6058 5.89681 12.5494 5.90633C12.5446 5.90714 12.5398 5.90803 12.535 5.909C12.4449 5.92719 12.3589 5.97266 12.2893 6.04542ZM7.64022 10.7657L12.217 5.97634C12.4419 5.74109 12.8103 5.74109 13.0351 5.97634C13.255 6.20646 13.255 6.57596 13.0351 6.80608L8.04923 12.0235C7.94237 12.1353 7.79545 12.1999 7.64022 12.1999C7.48499 12.1999 7.33807 12.1353 7.23121 12.0235L4.96492 9.65193C4.74502 9.42181 4.74502 9.05231 4.96492 8.82219C5.18973 8.58694 5.55813 8.58694 5.78294 8.82219L7.64022 10.7657ZM4.49988 2.265C5.83192 1.37496 7.39797 0.899902 9 0.899902C10.0637 0.899902 11.117 1.10942 12.0997 1.51648C13.0825 1.92354 13.9754 2.52018 14.7276 3.27234C15.4797 4.02449 16.0764 4.91743 16.4834 5.90017C16.8905 6.8829 17.1 7.93619 17.1 8.9999C17.1 10.6019 16.6249 12.168 15.7349 13.5C14.8449 14.8321 13.5798 15.8703 12.0997 16.4833C10.6196 17.0964 8.99101 17.2568 7.41976 16.9443C5.84852 16.6317 4.40524 15.8603 3.27243 14.7275C2.13963 13.5947 1.36818 12.1514 1.05564 10.5801C0.743097 9.00889 0.903503 7.38025 1.51657 5.90016C2.12964 4.42008 3.16784 3.15504 4.49988 2.265ZM5.22635 14.6476C6.34335 15.3939 7.65659 15.7923 9 15.7923C10.8014 15.7923 12.5291 15.0767 13.8029 13.8028C15.0768 12.529 15.7924 10.8014 15.7924 8.9999C15.7924 7.65649 15.394 6.34326 14.6477 5.22626C13.9013 4.10926 12.8405 3.23866 11.5993 2.72456C10.3582 2.21046 8.99246 2.07595 7.67487 2.33804C6.35728 2.60012 5.14699 3.24703 4.19706 4.19696C3.24713 5.14689 2.60022 6.35718 2.33813 7.67477C2.07605 8.99236 2.21056 10.3581 2.72466 11.5992C3.23876 12.8404 4.10935 13.9012 5.22635 14.6476ZM4.55544 2.34815C5.87103 1.46909 7.41775 0.999902 9 0.999902C10.0506 0.999902 11.0909 1.20683 12.0615 1.60887C13.0321 2.0109 13.914 2.60018 14.6568 3.34305C15.3997 4.08592 15.989 4.96783 16.391 5.93843C16.7931 6.90904 17 7.94933 17 8.9999C17 10.5821 16.5308 12.1289 15.6518 13.4445C14.7727 14.7601 13.5233 15.7854 12.0615 16.3909C10.5997 16.9964 8.99112 17.1549 7.43927 16.8462C5.88743 16.5375 4.46196 15.7756 3.34314 14.6568C2.22432 13.5379 1.4624 12.1125 1.15372 10.5606C0.845034 9.00878 1.00346 7.40024 1.60896 5.93843C2.21446 4.47662 3.23984 3.2272 4.55544 2.34815ZM5.1708 14.7307C6.30424 15.488 7.63681 15.8923 9 15.8923C10.828 15.8923 12.5811 15.1661 13.8736 13.8735C15.1662 12.581 15.8924 10.8279 15.8924 8.9999C15.8924 7.63672 15.4881 6.30415 14.7308 5.1707C13.9735 4.03725 12.897 3.15384 11.6376 2.63217C10.3782 2.11051 8.99235 1.97401 7.65536 2.23996C6.31837 2.5059 5.09026 3.16234 4.12635 4.12625C3.16243 5.09017 2.506 6.31827 2.24005 7.65526C1.97411 8.99225 2.1106 10.3781 2.63227 11.6375C3.15394 12.8969 4.03735 13.9734 5.1708 14.7307Z" fill="#00B88C"/>
</svg>
